<?xml version="1.0" encoding="UTF-8" standalone="no"?>
<svg
   xmlns:dc="http://purl.org/dc/elements/1.1/"
   xmlns:cc="http://creativecommons.org/ns#"
   xmlns:rdf="http://www.w3.org/1999/02/22-rdf-syntax-ns#"
   xmlns:svg="http://www.w3.org/2000/svg"
   xmlns="http://www.w3.org/2000/svg"
   xmlns:sodipodi="http://sodipodi.sourceforge.net/DTD/sodipodi-0.dtd"
   xmlns:inkscape="http://www.inkscape.org/namespaces/inkscape"
   viewBox="0 0 618.85999 84.599998"
   height="84.599998"
   width="618.85999"
   xml:space="preserve"
   version="1.1"
   id="svg2"
   inkscape:version="0.91 r13725"
   sodipodi:docname="logo.svg"><sodipodi:namedview
     pagecolor="#ffffff"
     bordercolor="#666666"
     borderopacity="1"
     objecttolerance="10"
     gridtolerance="10"
     guidetolerance="10"
     inkscape:pageopacity="0"
     inkscape:pageshadow="2"
     inkscape:window-width="1855"
     inkscape:window-height="1056"
     id="namedview68"
     showgrid="false"
     fit-margin-top="0"
     fit-margin-left="0"
     fit-margin-right="0"
     fit-margin-bottom="0"
     inkscape:zoom="2.3714964"
     inkscape:cx="276.71983"
     inkscape:cy="91.432953"
     inkscape:window-x="65"
     inkscape:window-y="24"
     inkscape:window-maximized="1"
     inkscape:current-layer="svg2" /><metadata
     id="metadata8"><rdf:RDF><cc:Work
         rdf:about=""><dc:format>image/svg+xml</dc:format><dc:type
           rdf:resource="http://purl.org/dc/dcmitype/StillImage" /><dc:title></dc:title></cc:Work></rdf:RDF></metadata><defs
     id="defs6"><clipPath
       id="clipPath18"
       clipPathUnits="userSpaceOnUse"><path
         id="path20"
         d="M 0,0 842,0 842,595 0,595 0,0 Z"
         inkscape:connector-curvature="0" /></clipPath><clipPath
       id="clipPath28"
       clipPathUnits="userSpaceOnUse"><path
         id="path30"
         d="m 134.1603,381.7729 573.6795,0 0,164.5201 -573.6795,0 0,-164.5201 z"
         inkscape:connector-curvature="0" /></clipPath><clipPath
       id="clipPath66"
       clipPathUnits="userSpaceOnUse"><path
         id="path68"
         d="m -1,514.7 844,10e-5 0,-5.0001 -844,0 0,5 z"
         inkscape:connector-curvature="0" /></clipPath><clipPath
       id="clipPath72"
       clipPathUnits="userSpaceOnUse"><path
         id="path74"
         d="M 0,0 842,0 842,595 0,595 0,0 Z"
         inkscape:connector-curvature="0" /></clipPath><clipPath
       id="clipPath84"
       clipPathUnits="userSpaceOnUse"><path
         id="path86"
         d="m -1,408.3 844,10e-5 0,-9.0001 -844,0 0,9 z"
         inkscape:connector-curvature="0" /></clipPath><clipPath
       id="clipPath90"
       clipPathUnits="userSpaceOnUse"><path
         id="path92"
         d="M 0,0 842,0 842,595 0,595 0,0 Z"
         inkscape:connector-curvature="0" /></clipPath><clipPath
       id="clipPath102"
       clipPathUnits="userSpaceOnUse"><path
         id="path104"
         d="m 81.64861,80.24377 678.7028,0 0,285.0502 -678.7028,0 0,-285.0502 z"
         inkscape:connector-curvature="0" /></clipPath></defs><g
     id="g12"
     transform="matrix(1.25,0,0,-1.25,-190.70112,491.24688)" /><g
     id="g24"
     transform="matrix(1.25,0,0,-1.25,-216.94,622.44125)"><g
       id="g26"
       clip-path="url(#clipPath28)"><g
         id="g32"
         transform="translate(171.76,434.113)"><g
           transform="scale(1,-1)"
           style="font-variant:normal;font-weight:normal;font-size:64px;font-family:Gorni;-inkscape-font-specification:Gorni-Regular;writing-mode:lr-tb;fill:#d17f15;fill-opacity:1;fill-rule:nonzero;stroke:none"
           id="text34"><path
             d="m 28.288,-18.752 0,-6.976 -26.496,0 0,6.976 26.496,0 z"
             style=""
             id="path4388" /></g></g><g
         id="g38"
         transform="translate(171.76,434.113)"><g
           transform="matrix(1,0,0,-1,29.888,0)"
           style="font-variant:normal;font-weight:normal;font-size:80px;font-family:Gorni;-inkscape-font-specification:Gorni-Regular;writing-mode:lr-tb;fill:#d17f15;fill-opacity:1;fill-rule:nonzero;stroke:none"
           id="text40"><path
             d="m 32.96,-61.2 c 9.04,0 19.68,3.44 19.68,21.6 l 2.72,0 0,-23.12 c 0,0 -1.44,3.52 -4.32,3.52 -2.88,0 -4.24,-4.64 -18.08,-4.64 -10.24,0.16 -30,6.16 -30,34.8 0,27.68 18,32.88 30,32.88 24.96,0 23.76,-22.88 23.76,-22.88 l -2.56,0 c 0,6.8 -5.6,18.8 -17.84,18.8 -7.92,-0.24 -19.04,-8.72 -19.04,-30.16 0,-21.36 9.28,-30.56 15.68,-30.8 z"
             style=""
             id="path4391" /></g></g><g
         id="g44"
         transform="translate(171.76,434.113)"><g
           transform="matrix(1,0,0,-1,89.248,0)"
           style="font-variant:normal;font-weight:normal;font-size:64px;font-family:Gorni;-inkscape-font-specification:Gorni-Regular;writing-mode:lr-tb;fill:#d17f15;fill-opacity:1;fill-rule:nonzero;stroke:none"
           id="text46"><path
             d="M 38.912,-8.576 28.864,-41.728 c 0,0 -2.176,-7.424 5.056,-7.424 l -23.936,0 c 7.744,0 5.056,7.616 5.056,7.616 l -8.896,31.424 0,-0.064 C 6.144,-10.176 3.648,0 -2.624,0 L 13.312,0 C 6.848,0 8,-6.784 8.256,-8.064 l 1.856,-6.592 16.704,0 1.92,6.4 -0.064,0 c 0,0 2.176,8.256 -4.928,8.256 l 23.424,0 c -4.672,0 -7.296,-5.696 -8.256,-8.576 z m -12.928,-8.64 -15.104,0 7.296,-25.92 7.808,25.92 z"
             style=""
             id="path4394" /><path
             d="m 88.128,-4.992 c -4.672,-4.608 -8.64,-23.04 -15.104,-23.04 l 7.872,-11.008 c 0,0 7.232,-10.112 14.848,-10.112 l -17.664,0 c 7.808,0 1.664,8.384 1.664,8.384 l -17.088,23.808 0,-24.384 c 0,-6.528 5.12,-7.808 5.12,-7.808 l -20.48,0 c 0,0 5.12,1.28 5.12,7.808 l 0,33.536 C 52.416,-1.28 47.296,0 47.296,0 l 20.48,0 c 0,0 -5.12,-1.28 -5.12,-7.808 l 0,-5.824 5.568,-7.744 c 7.168,7.168 6.336,24.32 19.904,24.32 6.4,0 9.088,-5.76 9.088,-5.76 0,0 -4.224,2.688 -9.088,-2.176 z"
             style=""
             id="path4396" /><path
             d="m 138.88,-14.464 -0.896,0 c 0,0 -1.408,11.904 -8.512,11.904 l -15.232,0 0,-18.752 6.912,0 c 7.552,0 7.552,5.056 7.552,5.056 l 0,-12.736 c 0,0 0,5.056 -7.808,5.056 l -6.656,0 0,-22.592 13.76,0 c 7.104,0 8.512,11.072 8.512,11.072 l 0.896,0 -0.448,-13.696 -38.080001,0 c 0,0 5.120001,1.472 5.120001,7.808 l 0,33.536 C 104,-1.408 98.879999,0 98.879999,0 L 138.432,0 138.88,-14.464 Z"
             style=""
             id="path4398" /><path
             d="m 170.04799,-18.752 0,-6.976 -26.496,0 0,6.976 26.496,0 z"
             style=""
             id="path4400" /></g></g><g
         id="g50"
         transform="translate(171.76,434.113)"><g
           transform="matrix(1,0,0,-1,260.896,0)"
           style="font-variant:normal;font-weight:normal;font-size:80px;font-family:Gorni;-inkscape-font-specification:Gorni-Regular;writing-mode:lr-tb;fill:#d17f15;fill-opacity:1;fill-rule:nonzero;stroke:none"
           id="text52"><path
             d="m 35.36,-61.44 c -5.92,0 -30.8,0 -30.8,0 0,0 6.4,1.6 6.4,9.76 l 0,41.92 C 10.96,-1.6 4.56,0 4.56,0 l 30.48,0 c 15.12,0 28.32,-11.68 28.32,-31.12 0,-19.44 -16.08,-30.32 -28,-30.32 z m -11.6,59.68 0,-57.84 c 8.72,0 24.8,3.52 24.8,26.96 0,23.44 -10.4,30.88 -24.8,30.88 z"
             style=""
             id="path4403" /></g></g><g
         id="g56"
         transform="translate(171.76,434.113)"><g
           transform="matrix(1,0,0,-1,327.216,0)"
           style="font-variant:normal;font-weight:normal;font-size:64px;font-family:Gorni;-inkscape-font-specification:Gorni-Regular;writing-mode:lr-tb;fill:#d17f15;fill-opacity:1;fill-rule:nonzero;stroke:none"
           id="text58"><path
             d="M 38.912,-8.576 28.864,-41.728 c 0,0 -2.176,-7.424 5.056,-7.424 l -23.936,0 c 7.744,0 5.056,7.616 5.056,7.616 l -8.896,31.424 0,-0.064 C 6.144,-10.176 3.648,0 -2.624,0 L 13.312,0 C 6.848,0 8,-6.784 8.256,-8.064 l 1.856,-6.592 16.704,0 1.92,6.4 -0.064,0 c 0,0 2.176,8.256 -4.928,8.256 l 23.424,0 c -4.672,0 -7.296,-5.696 -8.256,-8.576 z m -12.928,-8.64 -15.104,0 7.296,-25.92 7.808,25.92 z"
             style=""
             id="path4406" /><path
             d="m 68.352,-10.88 12.864,-26.688 c 0,0 4.864,-10.24 11.008,-10.24 l 0,-1.344 c -1.472,0 -44.032,0 -44.032,0 l 4.672,17.92 1.856,0 c 0,0 -2.56,-15.296 5.76,-15.296 l 18.048,0 c 0,0 -4.16,2.688 -6.4,4.864 -8.448,8.448 -18.432,40.768 -25.984,40.768 l 0,0.896 45.952,0 -0.64,-23.232 -1.792,0 c 0,0 -1.024,20.672 -9.856,20.672 l -19.648,0 c 4.032,0 8.192,-8.32 8.192,-8.32 z"
             style=""
             id="path4408" /><path
             d="m 138.496,-14.464 -0.896,0 c 0,0 -1.408,11.904 -8.512,11.904 l -15.232,0 0,-18.752 6.912,0 c 7.552,0 7.552,5.056 7.552,5.056 l 0,-12.736 c 0,0 0,5.056 -7.808,5.056 l -6.656,0 0,-22.592 13.76,0 c 7.104,0 8.512,11.072 8.512,11.072 l 0.896,0 -0.448,-13.696 -38.080003,0 c 0,0 5.120003,1.472 5.120003,7.808 l 0,33.536 c 0,6.4 -5.120003,7.808 -5.120003,7.808 l 39.552003,0 0.448,-14.464 z"
             style=""
             id="path4410" /><path
             d="m 169.66401,-18.752 0,-6.976 -26.496,0 0,6.976 26.496,0 z"
             style=""
             id="path4412" /></g></g></g></g></svg>